<svg aria-hidden="true" style="position: absolute; width: 0; height: 0; overflow: hidden;" version="1.1" xmlns="http://www.w3.org/2000/svg" xmlns:xlink="http://www.w3.org/1999/xlink">
<defs>
<symbol id="icon-logo-tagline" viewBox="0 0 147 32">
<title>logo-tagline</title>
<path d="M16.213 31.75l-0.365-3.378c-0.002-0.043-0.004-0.093-0.004-0.144s0.001-0.101 0.004-0.151l-0 0.007c0 0.047-0.081 0.166-0.125 0.257l-1.996 3.614-1.993-3.617c-0.041-0.072-0.084-0.161-0.122-0.253l-0.006-0.017c0.005 0.044 0.008 0.095 0.008 0.147s-0.003 0.103-0.008 0.153l0.001-0.006-0.338 3.378h-0.767l0.676-5.85 2.459 4.391c0.042 0.069 0.076 0.149 0.097 0.234l0.001 0.006c0.030-0.094 0.064-0.173 0.102-0.249l-0.004 0.010 2.452-4.391 0.676 5.843z"></path>
<path d="M22.309 31.851c-1.595-0.047-2.871-1.352-2.871-2.954 0-1.632 1.323-2.955 2.955-2.955s2.955 1.323 2.955 2.955c0 0.010-0 0.020-0 0.031v-0.002c-0.036 1.623-1.36 2.925-2.989 2.925-0.018 0-0.036-0-0.054-0l0.003 0zM22.309 26.596c-0.013-0-0.029-0-0.044-0-1.246 0-2.256 1.010-2.256 2.256 0 0.007 0 0.015 0 0.022v-0.001c-0 0.003-0 0.007-0 0.011 0 1.258 0.998 2.283 2.246 2.326l0.004 0c0.008 0 0.016 0 0.025 0 1.274 0 2.307-1.033 2.307-2.307 0-1.265-1.019-2.293-2.28-2.307h-0.001z"></path>
<path d="M27.143 26.052h0.79l1.746 4.249c0.022 0.070 0.038 0.152 0.044 0.236l0 0.003c0.006-0.088 0.024-0.169 0.053-0.246l-0.002 0.006 1.746-4.249h0.797l-2.594 5.948z"></path>
<path d="M34.452 31.75v-5.688h3.104v0.638h-2.364v1.689h1.915v0.659h-1.915v2.074h2.624v0.628z"></path>
<path d="M46.774 27.697l-1.797 4.273-2.081-5.918h0.78l1.351 3.905c0.027 0.083 0.043 0.178 0.044 0.277v0c0.006-0.101 0.025-0.195 0.056-0.284l-0.002 0.007 1.648-4.053 1.689 4.053c0.030 0.082 0.049 0.177 0.051 0.276l0 0.001c0.007-0.101 0.024-0.196 0.050-0.287l-0.002 0.010 1.321-3.905h0.784l-2.060 5.935z"></path>
<path d="M52.871 31.75v-5.698h0.719v5.698z"></path>
<path d="M57.599 31.75v-5.050h-1.662v-0.638h4.053v0.638h-1.662v5.050z"></path>
<path d="M65.989 31.75v-2.577h-2.942v2.577h-0.723v-5.698h0.723v2.466h2.942v-2.466h0.719v5.698z"></path>
<path d="M77.619 31.129c-0.497 0.449-1.159 0.724-1.885 0.724-0.026 0-0.052-0-0.078-0.001l0.004 0c-0.029 0.001-0.064 0.002-0.098 0.002-1.635 0-2.963-1.317-2.979-2.949v-0.002c-0-0.005-0-0.012-0-0.018 0-1.627 1.319-2.945 2.945-2.945 0.033 0 0.066 0.001 0.099 0.002l-0.005-0c0.016-0 0.035-0 0.054-0 0.751 0 1.433 0.292 1.941 0.769l-0.001-0.001-0.399 0.503c-0.398-0.382-0.94-0.618-1.536-0.618-0.042 0-0.083 0.001-0.124 0.003l0.006-0c-1.257 0-2.195 0.969-2.195 2.344 0.010 1.256 1.030 2.27 2.287 2.27 0.002 0 0.005 0 0.007 0h-0c0.027 0.001 0.060 0.002 0.092 0.002 0.585 0 1.121-0.21 1.536-0.559l-0.004 0.003z"></path>
<path d="M82.82 31.851c-1.595-0.047-2.871-1.352-2.871-2.954 0-1.632 1.323-2.955 2.955-2.955s2.955 1.323 2.955 2.955c0 0.010-0 0.020-0 0.031v-0.002c-0.036 1.623-1.36 2.925-2.989 2.925-0.018 0-0.036-0-0.054-0l0.003 0zM82.82 26.596c-0.013-0-0.029-0-0.044-0-1.246 0-2.256 1.010-2.256 2.256 0 0.007 0 0.015 0 0.022v-0.001c-0 0.004-0 0.008-0 0.012 0 1.252 0.989 2.273 2.228 2.325l0.005 0c0.008 0 0.018 0 0.027 0 1.274 0 2.307-1.033 2.307-2.307 0-1.265-1.018-2.292-2.279-2.307h-0.001z"></path>
<path d="M89.126 27.653v4.094h-0.723v-5.843l4.3 4.33v-4.182h0.719v5.887z"></path>
<path d="M95.588 26.052h0.79l1.746 4.249c0.022 0.070 0.038 0.152 0.044 0.236l0 0.003c0.005-0.088 0.024-0.169 0.056-0.245l-0.002 0.005 1.743-4.249h0.797l-2.587 5.948z"></path>
<path d="M102.89 31.75v-5.698h0.723v5.698z"></path>
<path d="M111.213 31.129c-0.496 0.449-1.156 0.724-1.882 0.724-0.028 0-0.057-0-0.085-0.001l0.004 0c-0.029 0.001-0.064 0.002-0.098 0.002-1.635 0-2.961-1.318-2.976-2.949v-0.001c-0-0.005-0-0.012-0-0.018 0-1.627 1.319-2.945 2.945-2.945 0.027 0 0.055 0 0.082 0.001l-0.004-0c0.016-0 0.035-0.001 0.054-0.001 0.75 0 1.431 0.292 1.936 0.769l-0.001-0.001-0.402 0.503c-0.398-0.382-0.94-0.618-1.536-0.618-0.042 0-0.083 0.001-0.124 0.003l0.006-0c-1.257 0-2.195 0.969-2.195 2.344 0.008 1.255 1.027 2.27 2.283 2.27 0.011 0 0.021-0 0.032-0l-0.002 0c0.028 0.001 0.061 0.002 0.094 0.002 0.584 0 1.119-0.21 1.534-0.559l-0.004 0.003z"></path>
<path d="M114.797 31.75v-5.050h-1.645v-0.638h4.053v0.638h-1.689v5.050z"></path>
<path d="M119.525 31.75v-5.698h0.719v5.698z"></path>
<path d="M125.872 31.851c-1.595-0.047-2.871-1.352-2.871-2.954 0-1.632 1.323-2.955 2.955-2.955s2.955 1.323 2.955 2.955c0 0.010-0 0.020-0 0.031v-0.002c-0.036 1.623-1.36 2.925-2.989 2.925-0.018 0-0.036-0-0.054-0l0.003 0zM125.872 26.596c-0.013-0-0.029-0-0.044-0-1.246 0-2.256 1.010-2.256 2.256 0 0.007 0 0.015 0 0.022v-0.001c-0 0.003-0 0.008-0 0.012 0 1.257 0.996 2.281 2.242 2.326l0.004 0c0.008 0 0.018 0 0.027 0 1.274 0 2.307-1.033 2.307-2.307 0-1.265-1.018-2.292-2.279-2.307h-0.001z"></path>
<path d="M132.178 27.653v4.094h-0.719v-5.843l4.323 4.33v-4.182h0.723v5.887z"></path>
<path d="M0 22.786h147.249v0.338h-147.249v-0.338z"></path>
<path d="M34.452 12.497v4.475c0 0.196 0.027 1.979 0.027 2.493h-3.378c0-0.513 0.027-2.297 0.027-3.243v-15.682h5.137c3.563 0 6.418 2.226 6.418 5.624 0 4.053-3.293 6.32-6.418 6.32zM36.165 9.457c1.818-0.010 3.289-1.482 3.297-3.299v-0.001c0-1.891-1.486-2.655-3.297-2.655h-1.712v5.955z"></path>
<path d="M109.416 3.715c-0.513 0-2.297-0.027-3.243-0.027h-1.108v12.524c0 0.946 0.027 2.729 0.027 3.243h-3.378c0-0.513 0.027-2.297 0.027-3.243v-12.541h-0.358c-0.946 0-3.482 0.027-3.996 0.027v-3.185c0.513 0 3.040 0.027 3.996 0.027h4.786c0.946 0 2.729-0.027 3.243-0.027z"></path>
<path d="M117.911 3.786c0-0.949-0.027-2.733-0.027-3.246h3.378c0 0.513-0.024 2.297-0.024 3.246v12.551h1.844c0.946 0 2.729-0.027 3.243-0.027v3.185c-0.513 0-2.297-0.030-3.243-0.030h-5.171z"></path>
<path d="M134.971 0.54h6.272c0.949 0 2.733-0.027 3.246-0.027v3.202c-0.513 0-2.297-0.027-3.246-0.027h-2.952v4.222h1.628c0.946 0 2.733-0.027 3.246-0.027v3.239c-0.513 0-2.3-0.027-3.246-0.027h-1.628v5.134h3.496c0.946 0 2.729-0.027 3.243-0.027v3.293c-0.513 0-2.297-0.030-3.243-0.030h-6.816z"></path>
<path d="M60.339 0c-5.525 0-10.005 4.479-10.005 10.005s4.479 10.005 10.005 10.005c5.525 0 10.005-4.479 10.005-10.005v0c-0.008-5.522-4.482-9.997-10.004-10.005h-0.001zM60.339 16.888c-3.795-0.002-6.87-3.079-6.87-6.874 0-3.796 3.077-6.874 6.874-6.874 3.793 0 6.868 3.072 6.874 6.863v0.001c0 0.003 0 0.007 0 0.010 0 3.796-3.077 6.874-6.874 6.874-0.001 0-0.002 0-0.004 0h0z"></path>
<path d="M7.634 9.991l5.502-9.788 11.055 19.59h-3.27l-7.748-13.744-2.601 4.536c3.614 3.219 7.576 9.194 7.576 9.194s-6.664-4.452-9.667-5.408l-3.040 5.404h-3.222l4.249-7.64c2.104 0.513 6.289 2.638 6.289 2.638s-3.087-3.31-5.124-4.783z"></path>
<path d="M80.571 14.277c0.703 1.219 2.185 2.462 3.715 2.435 1.689-0.027 2.425-0.993 2.472-2.074 0.071-1.598-0.983-2.239-2.702-3.459-2.111-1.486-4.411-3.78-4.411-6.539-0.024-2.57 1.925-4.438 4.796-4.438 2.516 0 4.053 1.409 5.114 2.679l-1.973 2.239c-0.676-0.919-1.442-1.942-3.141-1.895-0 0-0 0-0 0-0.768 0-1.404 0.563-1.518 1.299l-0.001 0.009c-0.267 1.628 0.844 2.624 2.631 3.867 2.111 1.463 4.391 3.165 4.391 6.198s-2.175 5.195-5.668 5.195c-3.003 0-4.925-1.814-5.897-3.574z"></path>
</symbol>
<symbol id="icon-client-logo" viewBox="0 0 228 32">
<title>client-logo</title>
<path d="M51.554 19.986v7.157c0 0.313 0.043 3.165 0.043 3.986h-5.402c0-0.821 0.043-3.673 0.043-5.186v-25.080h8.216c5.699 0 10.263 3.56 10.263 8.994 0 6.482-5.267 10.107-10.263 10.107zM54.288 15.125c2.909-0.015 5.262-2.369 5.278-5.276v-0.001c0-3.025-2.382-4.246-5.278-4.246h-2.733v9.523z"></path>
<path d="M171.441 5.942c-0.821 0-3.679-0.043-5.191-0.043h-1.772v20.030c0 1.512 0.043 4.365 0.043 5.186h-5.402c0-0.821 0.043-3.673 0.043-5.186v-20.057h-0.567c-1.512 0-5.569 0.043-6.39 0.043v-5.094c0.821 0 4.862 0.043 6.39 0.043h7.654c1.512 0 4.37-0.043 5.191-0.043z"></path>
<path d="M185.021 6.055c0-1.518-0.043-4.37-0.043-5.191h5.402c0 0.821-0.043 3.673-0.043 5.191v20.073h2.949c1.512 0 4.365-0.043 5.186-0.043v5.094c-0.821 0-3.673-0.049-5.186-0.049h-8.265z"></path>
<path d="M212.289 0.864h10.031c1.512 0 4.365-0.043 5.186-0.043v5.121c-0.821 0-3.673-0.043-5.186-0.043h-4.721v6.752h2.604c1.512 0 4.365-0.043 5.186-0.043v5.18c-0.821 0-3.673-0.043-5.186-0.043h-2.604v8.211h5.585c1.512 0 4.365-0.043 5.191-0.043v5.267c-0.826 0-3.679-0.049-5.191-0.049h-10.895z"></path>
<path d="M92.948 0c-8.837 0-16 7.163-16 16s7.163 16 16 16c8.837 0 16-7.163 16-16v0c-0.012-8.832-7.168-15.988-15.999-16h-0.001zM92.948 27.009c-6.071 0-10.993-4.922-10.993-10.993s4.922-10.993 10.993-10.993c6.071 0 10.993 4.922 10.993 10.993v0c0 6.071-4.922 10.993-10.993 10.993v0z"></path>
<path d="M8.643 15.978l8.821-15.654 17.675 31.33h-5.224l-12.381-21.98-4.159 7.255c5.758 5.148 12.1 14.704 12.1 14.704s-10.663-7.12-15.454-8.643l-4.862 8.643h-5.159l6.801-12.224c3.36 0.821 10.053 4.219 10.053 4.219s-4.937-5.294-8.211-7.649z"></path>
<path d="M125.321 22.833c1.124 1.95 3.495 3.938 5.942 3.895 2.701-0.043 3.873-1.588 3.949-3.317 0.113-2.555-1.572-3.581-4.321-5.531-3.371-2.377-7.049-6.045-7.049-10.458-0.049-4.111 3.068-7.098 7.654-7.098 4.024 0 6.482 2.253 8.173 4.284l-3.155 3.581c-1.080-1.469-2.307-3.106-5.018-3.030-0.002 0-0.004 0-0.006 0-1.228 0-2.245 0.9-2.428 2.077l-0.002 0.014c-0.427 2.604 1.35 4.197 4.208 6.185 3.376 2.339 7.055 5.061 7.055 9.912s-3.506 8.308-9.059 8.308c-4.808 0-7.876-2.901-9.437-5.715z"></path>
</symbol>
<symbol id="icon-logo1" viewBox="0 0 117 32">
<title>logo1</title>
<path d="M15.089 23.161c0.175-0.010 0.335-0.066 0.469-0.157l-0.003 0.002c0.189-0.115 0.353-0.235 0.505-0.367l-0.005 0.004 0.76 1.623c-0.398 0.462-0.88 0.839-1.424 1.11l-0.026 0.012c-0.718 0.362-1.566 0.575-2.463 0.575-0.081 0-0.162-0.002-0.242-0.005l0.011 0q-1.519 0-2.037-0.639c-0.336-0.418-0.543-0.952-0.552-1.535l-0-0.002c-0.179 0.257-0.366 0.483-0.571 0.691l0.001-0.001c-0.262 0.268-0.557 0.502-0.878 0.697l-0.020 0.011c-0.363 0.22-0.781 0.403-1.225 0.527l-0.036 0.009c-0.471 0.132-1.012 0.208-1.57 0.208-0.031 0-0.061-0-0.092-0.001l0.005 0c-0.019 0-0.042 0-0.066 0-0.801 0-1.568-0.146-2.275-0.412l0.045 0.015c-0.706-0.264-1.309-0.651-1.814-1.141l0.001 0.001c-0.499-0.491-0.898-1.084-1.162-1.744l-0.012-0.034c-0.263-0.66-0.415-1.426-0.415-2.227 0-0.031 0-0.061 0.001-0.092l-0 0.005c-0-0.027-0.001-0.058-0.001-0.090 0-1.779 0.794-3.372 2.047-4.444l0.008-0.007c0.628-0.533 1.37-0.957 2.18-1.229l0.047-0.014c0.791-0.274 1.703-0.432 2.651-0.432 0.015 0 0.030 0 0.044 0h-0.002c0.081-0.005 0.175-0.007 0.27-0.007 0.694 0 1.355 0.142 1.955 0.4l-0.032-0.012c0.351 0.155 0.653 0.352 0.918 0.59l-0.003-0.003v-0.863c0.006-0.079 0.009-0.17 0.009-0.263 0-0.901-0.309-1.73-0.827-2.387l0.006 0.008c-0.56-0.57-1.34-0.924-2.201-0.924-0.082 0-0.163 0.003-0.244 0.009l0.011-0.001c-0.044-0.002-0.096-0.003-0.148-0.003-0.678 0-1.312 0.187-1.853 0.513l0.016-0.009q-0.777 0.5-1.226 0.846c-0.163 0.112-0.349 0.222-0.544 0.317l-0.026 0.011c-0.163 0.076-0.353 0.121-0.554 0.121-0.006 0-0.011-0-0.017-0h0.001c-0.006 0-0.012 0-0.019 0-0.293 0-0.559-0.112-0.759-0.294l0.001 0.001c-0.202-0.182-0.329-0.445-0.329-0.737 0-0.014 0-0.028 0.001-0.042l-0 0.002c0.006-0.245 0.063-0.476 0.16-0.684l-0.004 0.011c0.157-0.316 0.359-0.584 0.603-0.81l0.002-0.002c0.244-0.239 0.503-0.465 0.774-0.675l0.020-0.015c0.335-0.26 0.715-0.49 1.121-0.676l0.036-0.015c0.437-0.203 0.955-0.386 1.491-0.522l0.063-0.013c0.568-0.143 1.22-0.225 1.891-0.225 0.033 0 0.066 0 0.099 0.001l-0.005-0q3.418 0 5.249 1.675t1.83 4.817v8.563c-0.002 0.014-0.003 0.031-0.003 0.047 0 0.186 0.15 0.336 0.336 0.336 0.016 0 0.033-0.001 0.049-0.003l-0.002 0zM9.53 16.962c-0.356-0.354-0.847-0.572-1.389-0.572-0.034 0-0.067 0.001-0.1 0.003l0.005-0c-0.018-0-0.039-0.001-0.061-0.001-0.915 0-1.732 0.422-2.266 1.083l-0.004 0.006c-0.573 0.714-0.919 1.632-0.919 2.63 0 0.065 0.001 0.129 0.004 0.194l-0-0.009c-0.003 0.051-0.004 0.111-0.004 0.171 0 0.772 0.247 1.486 0.667 2.067l-0.007-0.010c0.39 0.517 1.002 0.847 1.692 0.847 0.024 0 0.048-0 0.072-0.001l-0.003 0c0.002 0 0.005 0 0.008 0 0.783 0 1.49-0.324 1.994-0.845l0.001-0.001c0.542-0.601 0.873-1.4 0.873-2.277 0-0.092-0.004-0.183-0.011-0.273l0.001 0.012v-1.243c0.006-0.063 0.009-0.135 0.009-0.209 0-0.598-0.212-1.146-0.564-1.573l0.003 0.004z"></path>
<path d="M17.714 30.17l1.243-0.173v-18.542l-1.174-0.138v-1.727l5.352-1.83q0.552-0.173 0.552 0.518v1.623c0.177-0.252 0.37-0.473 0.584-0.671l0.003-0.002c0.278-0.259 0.589-0.487 0.925-0.678l0.024-0.013c0.386-0.22 0.833-0.409 1.304-0.542l0.043-0.010c0.5-0.143 1.073-0.225 1.666-0.225 0.027 0 0.054 0 0.081 0.001l-0.004-0c0.016-0 0.034-0 0.053-0 1.009 0 1.97 0.203 2.844 0.571l-0.048-0.018c0.915 0.387 1.688 0.949 2.308 1.651l0.006 0.007c0.671 0.775 1.196 1.696 1.521 2.707l0.015 0.055c0.352 1.083 0.554 2.33 0.554 3.623 0 0.074-0.001 0.147-0.002 0.221l0-0.011c0 0.037 0.001 0.080 0.001 0.124 0 1.319-0.241 2.583-0.681 3.748l0.024-0.073c-0.431 1.149-1.046 2.136-1.819 2.976l0.006-0.006c-0.752 0.808-1.659 1.461-2.676 1.913l-0.052 0.021c-1.011 0.437-2.189 0.691-3.425 0.691-0.646 0-1.275-0.069-1.882-0.201l0.058 0.011c-0.544-0.123-1.022-0.296-1.471-0.518l0.038 0.017v4.765l1.968 0.138v1.83h-7.942zM25.587 10.626c-0.389 0.181-0.72 0.419-1.001 0.707l-0.001 0.001c-0.27 0.282-0.491 0.614-0.648 0.98l-0.008 0.021c-0.151 0.341-0.24 0.738-0.242 1.156v7.355c-0.002 0.042-0.003 0.091-0.003 0.14 0 0.759 0.261 1.456 0.699 2.007l-0.005-0.007c0.453 0.512 1.112 0.834 1.845 0.834 0.055 0 0.11-0.002 0.165-0.005l-0.007 0q1.796 0 2.97-1.83t1.174-5.076c0.001-0.061 0.002-0.134 0.002-0.207 0-0.979-0.108-1.932-0.311-2.85l0.016 0.087c-0.166-0.769-0.44-1.451-0.811-2.068l0.017 0.030c-0.29-0.483-0.679-0.878-1.142-1.166l-0.015-0.008c-0.401-0.239-0.885-0.38-1.402-0.38-0.005 0-0.010 0-0.014 0h0.001c-0.008-0-0.018-0-0.027-0-0.454 0-0.884 0.102-1.269 0.284l0.018-0.008z"></path>
<path d="M38.294 13.078c0.47-1.115 1.118-2.066 1.917-2.866l-0 0c0.766-0.758 1.678-1.37 2.689-1.792l0.056-0.021c0.938-0.402 2.030-0.637 3.176-0.639h0.001c0.029-0 0.063-0.001 0.098-0.001 1.202 0 2.35 0.235 3.399 0.661l-0.060-0.022c1.059 0.43 1.962 1.044 2.709 1.811l0.002 0.002c0.76 0.795 1.36 1.751 1.743 2.81l0.018 0.056c0.394 1.079 0.622 2.324 0.622 3.622 0 0.050-0 0.099-0.001 0.149l0-0.008c0.001 0.047 0.001 0.103 0.001 0.159 0 1.303-0.248 2.548-0.698 3.691l0.024-0.068c-0.441 1.112-1.061 2.064-1.833 2.869l0.003-0.003c-0.749 0.773-1.651 1.392-2.658 1.811l-0.053 0.019c-0.981 0.404-2.121 0.639-3.315 0.639s-2.334-0.235-3.374-0.661l0.059 0.022c-1.057-0.436-1.959-1.050-2.71-1.812l-0.001-0.001c-0.776-0.801-1.401-1.753-1.827-2.807l-0.021-0.059c-0.438-1.081-0.692-2.336-0.692-3.649 0-0.052 0-0.105 0.001-0.157l-0 0.008c-0.001-0.039-0.001-0.084-0.001-0.13 0-1.311 0.267-2.56 0.749-3.696l-0.023 0.062zM49.326 14.632c-0.18-0.943-0.461-1.782-0.838-2.565l0.027 0.062c-0.308-0.655-0.733-1.207-1.254-1.652l-0.007-0.006c-0.439-0.375-1.013-0.603-1.64-0.604h-0c-0.001 0-0.001 0-0.002 0-0.479 0-0.919 0.169-1.262 0.452l0.003-0.003c-0.402 0.333-0.724 0.748-0.941 1.222l-0.009 0.021c-0.258 0.549-0.462 1.186-0.58 1.853l-0.007 0.046c-0.132 0.705-0.208 1.515-0.208 2.344 0 0.038 0 0.076 0 0.114l-0-0.006c-0 0.031-0 0.067-0 0.103 0 1.076 0.113 2.125 0.329 3.137l-0.017-0.098c0.191 0.944 0.49 1.781 0.889 2.559l-0.026-0.055c0.328 0.652 0.763 1.203 1.288 1.651l0.007 0.006c0.419 0.367 0.967 0.594 1.569 0.604l0.002 0c0.011 0 0.024 0 0.037 0 0.49 0 0.941-0.169 1.297-0.453l-0.004 0.003c0.402-0.334 0.72-0.757 0.924-1.239l0.008-0.021c0.245-0.556 0.432-1.201 0.53-1.876l0.005-0.041c0.11-0.699 0.173-1.505 0.173-2.325 0-0.032-0-0.065-0-0.097l0 0.005c0-0.031 0-0.069 0-0.106 0-1.074-0.107-2.123-0.311-3.137l0.017 0.101z"></path>
<path d="M57.302 24.524q-0.155-0.742-0.328-1.588t-0.311-1.657-0.173-1.226c-0.004-0.031-0.006-0.067-0.006-0.104 0-0.21 0.074-0.403 0.197-0.554l-0.001 0.002c0.136-0.169 0.344-0.277 0.576-0.277 0.010 0 0.020 0 0.030 0.001l-0.001-0c0.016-0.001 0.035-0.002 0.053-0.002 0.203 0 0.39 0.072 0.535 0.193l-0.001-0.001c0.14 0.131 0.256 0.285 0.341 0.457l0.004 0.009c0.281 0.58 0.592 1.078 0.947 1.54l-0.015-0.020c0.369 0.483 0.771 0.907 1.214 1.285l0.011 0.010c0.42 0.36 0.905 0.662 1.431 0.884l0.036 0.014c0.498 0.208 1.076 0.328 1.683 0.328 0.015 0 0.030-0 0.046-0l-0.002 0c0.074 0.006 0.16 0.009 0.247 0.009 0.748 0 1.437-0.25 1.988-0.671l-0.008 0.006c0.458-0.435 0.743-1.047 0.743-1.727 0-0.628-0.243-1.199-0.64-1.624l0.001 0.001c-0.549-0.455-1.2-0.81-1.912-1.026l-0.039-0.010-2.693-0.898c-1.313-0.383-2.437-1.071-3.331-1.984l-0.001-0.001c-0.741-0.818-1.194-1.908-1.194-3.105 0-0.056 0.001-0.111 0.003-0.166l-0 0.008c-0.001-0.042-0.002-0.092-0.002-0.142 0-1.353 0.609-2.564 1.567-3.375l0.007-0.005c1.081-0.847 2.459-1.358 3.958-1.358 0.132 0 0.264 0.004 0.394 0.012l-0.018-0.001c0.062-0.002 0.136-0.003 0.209-0.003 0.677 0 1.329 0.102 1.944 0.292l-0.047-0.012c0.448 0.139 0.838 0.339 1.185 0.595l-0.011-0.008q0.103-0.138 0.293-0.363t0.363-0.397c0.153-0.177 0.372-0.294 0.619-0.311l0.003-0c0.003-0 0.007-0 0.012-0 0.202 0 0.377 0.11 0.47 0.274l0.001 0.003q0.104 0.242 0.259 0.725t0.328 1.070 0.328 1.226 0.259 1.157c0.011 0.051 0.017 0.111 0.017 0.171 0 0.196-0.065 0.376-0.174 0.522l0.002-0.002c-0.129 0.189-0.343 0.311-0.586 0.311-0.006 0-0.013-0-0.019-0l0.001 0c-0.013 0.001-0.028 0.001-0.043 0.001-0.168 0-0.326-0.045-0.462-0.124l0.004 0.002c-0.164-0.115-0.306-0.246-0.429-0.394l-0.003-0.004q-0.311-0.38-0.725-0.863c-0.593-0.681-1.325-1.225-2.154-1.59l-0.039-0.015c-0.427-0.186-0.925-0.294-1.448-0.294-0.019 0-0.038 0-0.056 0l0.003-0c-0.036-0.002-0.077-0.003-0.12-0.003-0.54 0-1.043 0.162-1.461 0.44l0.010-0.006c-0.368 0.26-0.606 0.683-0.606 1.162 0 0.022 0.001 0.045 0.002 0.067l-0-0.003c-0.001 0.017-0.001 0.037-0.001 0.057 0 0.512 0.235 0.969 0.602 1.27l0.003 0.002c0.548 0.405 1.185 0.729 1.872 0.938l0.044 0.012 2.693 0.932c1.427 0.405 2.643 1.168 3.587 2.188l0.005 0.005c0.734 0.911 1.178 2.082 1.178 3.356 0 0.076-0.002 0.153-0.005 0.228l0-0.011c0 0.004 0 0.010 0 0.015 0 0.759-0.146 1.484-0.411 2.148l0.014-0.039c-0.282 0.707-0.698 1.307-1.223 1.793l-0.003 0.003c-0.594 0.537-1.301 0.961-2.081 1.23l-0.043 0.013c-0.869 0.297-1.869 0.469-2.91 0.469-0.076 0-0.151-0.001-0.226-0.003l0.011 0c-0.063 0.002-0.137 0.003-0.212 0.003-0.872 0-1.708-0.159-2.478-0.451l0.048 0.016c-0.562-0.204-1.048-0.478-1.478-0.82l0.011 0.008c-0.125 0.181-0.25 0.339-0.384 0.488l0.004-0.005q-0.242 0.276-0.414 0.449c-0.17 0.197-0.413 0.327-0.688 0.345l-0.003 0c-0.006 0-0.013 0-0.021 0-0.258 0-0.471-0.196-0.497-0.447l-0-0.002c-0.087-0.271-0.176-0.625-0.248-0.986l-0.011-0.068z"></path>
<path d="M80.921 25.18c-0.798 0.492-1.764 0.783-2.799 0.783-0.090 0-0.18-0.002-0.27-0.007l0.013 0c-0.089 0.006-0.193 0.009-0.297 0.009-1.177 0-2.256-0.421-3.094-1.12l0.008 0.006c-0.752-0.742-1.217-1.771-1.217-2.91 0-0.094 0.003-0.187 0.009-0.279l-0.001 0.012v-11.291h-1.83v-1.347c0.534-0.291 0.991-0.595 1.42-0.932l-0.022 0.017c0.448-0.356 0.844-0.741 1.198-1.162l0.010-0.012q0.569-0.673 1.139-1.502c0.372-0.54 0.756-1.172 1.104-1.826l0.052-0.108c0.108-0.215 0.247-0.398 0.413-0.551l0.001-0.001c0.146-0.109 0.331-0.174 0.53-0.174 0.020 0 0.040 0.001 0.060 0.002l-0.003-0c0.020-0.003 0.043-0.004 0.067-0.004 0.184 0 0.348 0.089 0.45 0.227l0.001 0.002c0.087 0.152 0.139 0.334 0.139 0.527 0 0.015-0 0.030-0.001 0.044l0-0.002v4.593h3.867v2.279h-3.867v10.946q0 1.692 1.519 1.692c0.005 0 0.010 0 0.016 0 0.417 0 0.806-0.122 1.132-0.333l-0.008 0.005c0.32-0.197 0.593-0.432 0.825-0.703l0.004-0.005 1.174 1.415c-0.462 0.689-1.044 1.26-1.721 1.695l-0.023 0.014z"></path>
<path d="M83.942 23.713l1.243-0.138v-19.82l-1.174-0.173v-1.692l5.317-1.83q0.588-0.242 0.587 0.483v23.031l1.347 0.138v1.83h-7.32z"></path>
<path d="M108.027 23.247c-0.452 0.464-0.956 0.874-1.503 1.223l-0.034 0.020c-0.63 0.405-1.356 0.756-2.123 1.015l-0.070 0.021c-0.812 0.274-1.747 0.433-2.72 0.433-0.045 0-0.091-0-0.136-0.001l0.007 0c-0.045 0.001-0.099 0.001-0.152 0.001-1.213 0-2.371-0.235-3.431-0.662l0.062 0.022c-1.029-0.417-1.904-1.021-2.622-1.775l-0.003-0.003c-0.711-0.767-1.265-1.689-1.607-2.709l-0.015-0.053c-0.351-1.032-0.553-2.221-0.553-3.457 0-0.047 0-0.094 0.001-0.141l-0 0.007c-0-0.027-0-0.058-0-0.090 0-1.284 0.215-2.518 0.611-3.667l-0.024 0.079c0.387-1.145 0.939-2.137 1.638-3.006l-0.015 0.019c0.671-0.83 1.499-1.504 2.443-1.983l0.043-0.020c0.905-0.458 1.973-0.726 3.104-0.726 0.026 0 0.051 0 0.077 0l-0.004-0c0.057-0.002 0.124-0.002 0.191-0.002 1.094 0 2.132 0.236 3.067 0.66l-0.047-0.019c0.881 0.412 1.631 0.957 2.259 1.62l0.003 0.003c0.586 0.626 1.068 1.357 1.414 2.161l0.019 0.049c0.305 0.683 0.545 1.478 0.683 2.307l0.008 0.058-10.532 3.971c0.29 1.335 0.942 2.487 1.847 3.383l0.001 0c0.73 0.701 1.721 1.134 2.813 1.14h0.001c0.020 0 0.044 0 0.067 0 0.581 0 1.14-0.095 1.661-0.27l-0.037 0.011c0.941-0.318 1.752-0.795 2.442-1.405l-0.008 0.007q0.466-0.414 0.811-0.76l1.278 1.45c-0.293 0.403-0.594 0.758-0.917 1.090l0.002-0.002zM103.452 13.147c0-0.022 0.001-0.047 0.001-0.073 0-0.836-0.272-1.609-0.734-2.234l0.007 0.010c-0.418-0.598-1.103-0.985-1.878-0.985-0.019 0-0.039 0-0.058 0.001l0.003-0c-0.006-0-0.013-0-0.020-0-0.485 0-0.934 0.155-1.299 0.419l0.007-0.005c-0.412 0.303-0.744 0.691-0.976 1.139l-0.009 0.018c-0.264 0.497-0.478 1.074-0.613 1.68l-0.009 0.046c-0.143 0.619-0.225 1.329-0.225 2.059 0 0.023 0 0.045 0 0.068l-0-0.004v0.553c0 0.195 0.013 0.387 0.037 0.575l-0.002-0.022 4.834-1.968c0.544-0.168 0.933-0.667 0.933-1.256 0-0.008-0-0.015-0-0.022v0.001z"></path>
<path d="M111.515 25.163c-0.522-0.5-0.847-1.202-0.847-1.98 0-0.020 0-0.040 0.001-0.060l-0 0.003c-0-0.018-0.001-0.040-0.001-0.061 0-0.774 0.317-1.473 0.829-1.976l0-0c0.563-0.514 1.315-0.829 2.141-0.829s1.578 0.315 2.143 0.831l-0.002-0.002c0.512 0.503 0.83 1.203 0.83 1.977 0 0.021-0 0.043-0.001 0.064l0-0.003c0 0.017 0.001 0.036 0.001 0.056 0 0.778-0.325 1.481-0.846 1.98l-0.001 0.001c-0.557 0.514-1.303 0.829-2.124 0.829s-1.567-0.315-2.126-0.831l0.002 0.002z"></path>
</symbol>
<symbol id="icon-radio_button_unchecked" viewBox="0 0 24 24">
<title>radio_button_unchecked</title>
<path d="M12 20.016c4.406 0 8.016-3.609 8.016-8.016s-3.609-8.016-8.016-8.016-8.016 3.609-8.016 8.016 3.609 8.016 8.016 8.016zM12 2.016c5.531 0 9.984 4.453 9.984 9.984s-4.453 9.984-9.984 9.984-9.984-4.453-9.984-9.984 4.453-9.984 9.984-9.984z"></path>
</symbol>
<symbol id="icon-email" viewBox="0 0 24 24">
<title>email</title>
<path d="M2.016 21v-6.984l15-2.016-15-2.016v-6.984l21 9z"></path>
</symbol>
<symbol id="icon-add" viewBox="0 0 24 24">
<title>add</title>
<path d="M18.984 12.984h-6v6h-1.969v-6h-6v-1.969h6v-6h1.969v6h6v1.969z"></path>
</symbol>
<symbol id="icon-twitter" viewBox="0 0 26 28">
<title>twitter</title>
<path d="M25.312 6.375c-0.688 1-1.547 1.891-2.531 2.609 0.016 0.219 0.016 0.438 0.016 0.656 0 6.672-5.078 14.359-14.359 14.359-2.859 0-5.516-0.828-7.75-2.266 0.406 0.047 0.797 0.063 1.219 0.063 2.359 0 4.531-0.797 6.266-2.156-2.219-0.047-4.078-1.5-4.719-3.5 0.313 0.047 0.625 0.078 0.953 0.078 0.453 0 0.906-0.063 1.328-0.172-2.312-0.469-4.047-2.5-4.047-4.953v-0.063c0.672 0.375 1.453 0.609 2.281 0.641-1.359-0.906-2.25-2.453-2.25-4.203 0-0.938 0.25-1.797 0.688-2.547 2.484 3.062 6.219 5.063 10.406 5.281-0.078-0.375-0.125-0.766-0.125-1.156 0-2.781 2.25-5.047 5.047-5.047 1.453 0 2.766 0.609 3.687 1.594 1.141-0.219 2.234-0.641 3.203-1.219-0.375 1.172-1.172 2.156-2.219 2.781 1.016-0.109 2-0.391 2.906-0.781z"></path>
</symbol>
<symbol id="icon-instagram" viewBox="0 0 24 28">
<title>instagram</title>
<path d="M16 14c0-2.203-1.797-4-4-4s-4 1.797-4 4 1.797 4 4 4 4-1.797 4-4zM18.156 14c0 3.406-2.75 6.156-6.156 6.156s-6.156-2.75-6.156-6.156 2.75-6.156 6.156-6.156 6.156 2.75 6.156 6.156zM19.844 7.594c0 0.797-0.641 1.437-1.437 1.437s-1.437-0.641-1.437-1.437 0.641-1.437 1.437-1.437 1.437 0.641 1.437 1.437zM12 4.156c-1.75 0-5.5-0.141-7.078 0.484-0.547 0.219-0.953 0.484-1.375 0.906s-0.688 0.828-0.906 1.375c-0.625 1.578-0.484 5.328-0.484 7.078s-0.141 5.5 0.484 7.078c0.219 0.547 0.484 0.953 0.906 1.375s0.828 0.688 1.375 0.906c1.578 0.625 5.328 0.484 7.078 0.484s5.5 0.141 7.078-0.484c0.547-0.219 0.953-0.484 1.375-0.906s0.688-0.828 0.906-1.375c0.625-1.578 0.484-5.328 0.484-7.078s0.141-5.5-0.484-7.078c-0.219-0.547-0.484-0.953-0.906-1.375s-0.828-0.688-1.375-0.906c-1.578-0.625-5.328-0.484-7.078-0.484zM24 14c0 1.656 0.016 3.297-0.078 4.953-0.094 1.922-0.531 3.625-1.937 5.031s-3.109 1.844-5.031 1.937c-1.656 0.094-3.297 0.078-4.953 0.078s-3.297 0.016-4.953-0.078c-1.922-0.094-3.625-0.531-5.031-1.937s-1.844-3.109-1.937-5.031c-0.094-1.656-0.078-3.297-0.078-4.953s-0.016-3.297 0.078-4.953c0.094-1.922 0.531-3.625 1.937-5.031s3.109-1.844 5.031-1.937c1.656-0.094 3.297-0.078 4.953-0.078s3.297-0.016 4.953 0.078c1.922 0.094 3.625 0.531 5.031 1.937s1.844 3.109 1.937 5.031c0.094 1.656 0.078 3.297 0.078 4.953z"></path>
</symbol>
<symbol id="icon-medium" viewBox="0 0 28 28">
<title>medium</title>
<path d="M9.328 6.578v18.328c0 0.484-0.234 0.938-0.766 0.938-0.187 0-0.359-0.047-0.516-0.125l-7.266-3.641c-0.438-0.219-0.781-0.781-0.781-1.25v-17.813c0-0.391 0.187-0.75 0.609-0.75 0.25 0 0.469 0.125 0.688 0.234l7.984 4c0.016 0.016 0.047 0.063 0.047 0.078zM10.328 8.156l8.344 13.531-8.344-4.156v-9.375zM28 8.437v16.469c0 0.516-0.297 0.875-0.812 0.875-0.266 0-0.516-0.078-0.734-0.203l-6.891-3.437zM27.953 6.563c0 0.063-8.078 13.172-8.703 14.172l-6.094-9.906 5.063-8.234c0.172-0.281 0.484-0.438 0.812-0.438 0.141 0 0.281 0.031 0.406 0.094l8.453 4.219c0.031 0.016 0.063 0.047 0.063 0.094z"></path>
</symbol>
</defs>
</svg>
