<?xml version="1.0" standalone="no"?>
<!DOCTYPE svg PUBLIC "-//W3C//DTD SVG 20010904//EN"
 "http://www.w3.org/TR/2001/REC-SVG-20010904/DTD/svg10.dtd">
<svg version="1.0" xmlns="http://www.w3.org/2000/svg"
 width="1286.000000pt" height="1286.000000pt" viewBox="0 0 1286.000000 1286.000000"
 preserveAspectRatio="xMidYMid meet">
<metadata>
Created by potrace 1.11, written by Peter Selinger 2001-2013
</metadata>
<g transform="translate(0.000000,1286.000000) scale(0.100000,-0.100000)"
fill="#000000" stroke="none">
<path d="M3808 11325 c-2 -2 -46 -6 -98 -10 -144 -10 -281 -25 -290 -30 -5 -3
-82 -14 -145 -21 -16 -1 -30 -3 -30 -4 0 -1 -12 -4 -60 -14 -5 -1 -14 -4 -20
-7 -5 -3 -17 -5 -25 -4 -8 1 -26 -3 -40 -8 -14 -5 -36 -11 -50 -13 -32 -5 -65
-12 -65 -14 0 -2 -13 -5 -51 -14 -12 -2 -54 -15 -95 -27 -41 -13 -76 -23 -79
-24 -67 -18 -240 -77 -330 -112 -8 -4 -18 -7 -22 -8 -5 -2 -10 -4 -13 -5 -3
-1 -8 -3 -12 -4 -5 -2 -34 -14 -67 -29 -32 -15 -61 -27 -64 -27 -11 0 -277
-134 -280 -142 -2 -4 -9 -8 -15 -8 -7 0 -28 -10 -47 -22 -19 -12 -37 -22 -40
-23 -8 -1 -214 -137 -220 -144 -3 -4 -25 -21 -50 -38 -25 -17 -63 -47 -85 -66
-48 -43 -47 -43 -110 -92 -122 -97 -435 -408 -435 -434 0 -3 -14 -20 -30 -38
-17 -18 -30 -34 -30 -37 0 -3 -15 -29 -33 -58 -30 -49 -60 -109 -58 -116 1 -1
-5 -15 -13 -31 -8 -15 -17 -39 -20 -52 -4 -23 -9 -38 -22 -76 -15 -42 -27
-289 -16 -308 4 -5 7 -14 7 -20 5 -55 61 -166 116 -230 24 -27 47 -51 51 -53
3 -2 19 -14 35 -28 40 -34 159 -92 218 -105 56 -13 238 -15 300 -4 22 4 60 13
85 21 57 19 280 135 280 146 0 4 5 8 10 8 14 0 134 79 138 91 2 5 10 9 18 9 8
0 14 4 14 9 0 5 8 12 18 15 10 4 27 14 38 24 10 9 36 28 56 42 21 14 38 28 38
33 0 4 6 7 14 7 8 0 16 3 18 8 2 4 97 70 213 147 199 132 415 256 415 238 0
-4 4 -3 8 2 4 6 39 21 77 33 39 13 77 26 85 29 8 4 20 7 25 8 6 1 13 3 18 5
10 4 17 5 67 15 25 5 47 9 50 10 3 1 25 5 50 10 25 5 47 9 50 10 3 1 39 5 80
9 41 5 86 10 100 12 35 5 409 5 445 -1 17 -2 57 -7 90 -11 68 -7 90 -10 125
-18 14 -3 36 -8 50 -10 14 -3 36 -8 50 -11 14 -3 36 -8 50 -11 64 -13 241 -80
314 -118 133 -71 151 -81 156 -88 3 -4 27 -23 53 -41 135 -96 311 -308 387
-467 12 -25 26 -52 31 -60 24 -39 122 -311 114 -318 -2 -3 2 -19 9 -37 12 -27
37 -146 41 -195 1 -8 4 -26 8 -40 3 -14 9 -56 13 -95 3 -38 8 -88 10 -110 7
-56 13 -708 7 -718 -2 -4 -19 7 -37 24 -38 35 -184 135 -242 164 -21 11 -42
25 -46 30 -5 7 -8 7 -8 0 0 -6 -3 -5 -8 1 -16 25 -321 163 -396 179 -10 3 -42
11 -70 19 -28 8 -67 17 -86 20 -19 3 -46 8 -60 11 -14 3 -41 7 -60 10 -19 3
-53 8 -75 11 -22 4 -56 8 -75 9 -19 2 -35 4 -35 4 0 3 -97 10 -220 16 -104 5
-320 8 -320 5 0 -1 -21 -2 -48 -3 -26 -1 -47 2 -47 6 0 5 -6 5 -12 0 -7 -4
-42 -8 -78 -10 -105 -4 -192 -12 -198 -17 -3 -3 -11 -1 -19 5 -9 8 -13 8 -13
1 0 -6 -8 -11 -17 -11 -28 0 -118 -9 -118 -11 0 -1 -16 -3 -35 -5 -31 -3 -119
-18 -176 -29 -12 -2 -37 -7 -55 -10 -76 -13 -312 -71 -394 -98 -33 -11 -67
-21 -75 -23 -8 -2 -34 -10 -57 -19 -24 -8 -43 -12 -43 -8 0 4 -4 1 -8 -6 -5
-7 -20 -15 -34 -17 -31 -6 -213 -78 -313 -125 -38 -17 -86 -39 -105 -48 -19
-9 -37 -19 -40 -22 -8 -9 -64 -34 -72 -32 -5 1 -8 -2 -8 -7 0 -5 -12 -14 -27
-20 -16 -7 -46 -23 -68 -36 -22 -13 -53 -32 -70 -41 -16 -9 -35 -23 -43 -30
-7 -8 -20 -14 -28 -14 -8 0 -14 -4 -14 -8 0 -5 -18 -18 -40 -31 -22 -12 -45
-27 -52 -34 -7 -7 -29 -23 -49 -37 -39 -27 -77 -57 -173 -134 -70 -57 -336
-322 -381 -380 -16 -21 -43 -52 -58 -70 -15 -17 -68 -89 -117 -161 -49 -71
-93 -134 -98 -140 -4 -5 -10 -14 -11 -20 -2 -5 -9 -19 -16 -30 -37 -60 -74
-128 -105 -190 -19 -39 -39 -73 -43 -76 -5 -3 -8 -9 -8 -13 1 -3 0 -8 0 -11
-1 -3 -2 -8 -3 -12 -1 -5 -15 -35 -30 -68 -15 -33 -31 -69 -36 -80 -16 -37
-69 -190 -76 -220 -4 -16 -9 -34 -13 -40 -3 -5 -6 -14 -8 -20 -1 -5 -5 -21 -8
-35 -3 -14 -8 -32 -10 -40 -2 -8 -4 -17 -5 -20 -1 -3 -2 -8 -1 -12 0 -4 -4
-19 -9 -33 -5 -14 -12 -38 -15 -53 -5 -28 -40 -242 -49 -302 -15 -98 -21 -227
-21 -435 0 -254 6 -352 30 -515 3 -19 8 -53 11 -75 7 -53 53 -276 61 -295 4
-8 7 -22 8 -30 1 -8 4 -22 7 -30 3 -8 25 -73 48 -145 24 -71 55 -157 70 -190
15 -33 33 -77 41 -97 7 -21 17 -38 21 -38 4 0 7 -3 6 -7 -2 -9 34 -85 43 -93
4 -3 10 -16 14 -30 4 -14 10 -27 14 -30 3 -3 15 -21 25 -40 33 -59 129 -205
138 -208 4 -2 8 -8 8 -13 0 -6 5 -15 10 -22 6 -7 24 -30 41 -52 53 -70 103
-128 152 -180 27 -27 63 -66 82 -86 30 -33 219 -197 273 -237 12 -9 28 -22 35
-27 28 -24 106 -75 115 -75 6 0 12 -4 14 -9 3 -10 83 -58 178 -108 36 -19 79
-43 95 -53 17 -10 32 -18 35 -18 3 0 25 -8 50 -20 74 -33 124 -55 135 -58 6
-1 44 -16 85 -32 41 -16 104 -38 140 -47 36 -10 71 -22 77 -28 7 -5 20 -7 28
-3 8 3 15 1 15 -5 0 -5 6 -9 13 -8 6 1 19 0 27 -4 16 -6 58 -15 103 -22 16 -3
32 -7 37 -10 4 -3 26 -7 48 -10 23 -3 53 -10 67 -15 19 -7 24 -7 19 2 -4 7 -3
8 4 4 22 -13 124 -28 277 -40 11 -1 25 -4 30 -8 11 -6 612 -2 665 5 19 3 60 8
91 11 82 8 129 17 156 27 14 5 22 5 19 0 -3 -5 14 -3 38 4 24 8 47 11 50 8 3
-3 11 -1 18 4 12 9 38 16 108 29 78 14 273 81 404 138 32 14 63 26 69 26 6 0
18 6 26 14 9 8 25 16 36 18 11 1 22 5 25 8 3 3 16 11 30 18 14 6 52 28 85 47
33 20 70 41 83 47 12 6 22 15 22 20 0 4 5 8 10 8 15 0 158 101 244 172 76 63
246 233 246 247 0 6 7 11 15 11 8 0 15 3 15 8 0 4 12 21 26 37 14 17 40 48 57
69 18 22 40 47 50 58 9 10 17 21 17 26 0 4 14 22 30 41 l30 34 1 -29 c3 -89 9
-137 26 -224 19 -97 48 -185 91 -280 14 -30 26 -57 26 -60 3 -11 60 -106 74
-122 8 -10 12 -18 8 -18 -4 0 4 -11 18 -24 15 -13 26 -28 26 -33 0 -15 81 -95
141 -141 66 -49 169 -104 232 -123 26 -7 47 -16 47 -20 0 -3 6 -6 13 -6 20 -1
66 -11 75 -17 8 -5 128 -29 202 -40 167 -27 704 -27 870 -2 14 2 48 7 75 11
104 13 121 15 145 20 33 7 91 17 110 20 8 1 35 8 60 15 25 6 56 14 70 17 32 6
42 9 60 16 8 3 53 17 100 32 100 31 92 27 244 99 65 31 122 56 127 56 5 0 9 4
9 9 0 5 15 15 33 22 52 21 340 207 384 248 12 12 26 21 32 21 5 0 11 3 13 8 2
4 28 28 58 53 91 76 210 200 210 217 0 6 5 12 11 14 9 3 -8 45 -107 255 -19
40 -34 77 -34 83 0 5 -4 10 -10 10 -5 0 -10 4 -10 10 0 11 -53 130 -160 355
-29 61 -56 120 -61 133 -5 12 -13 22 -17 22 -5 0 -38 -22 -73 -50 -85 -66 -77
-60 -140 -101 -130 -85 -225 -119 -321 -115 -91 5 -141 37 -173 111 -5 11 -10
1096 -11 2410 -1 2414 -3 2566 -29 2810 -3 28 -7 71 -10 98 -2 26 -6 55 -9 65
-3 9 -8 42 -11 72 -4 30 -8 57 -10 60 -2 3 -6 24 -9 46 -7 48 -8 49 -40 189
-14 61 -32 130 -41 154 -8 24 -12 47 -9 52 3 5 1 9 -4 9 -5 0 -12 12 -15 28
-2 15 -10 43 -17 62 -15 40 -22 62 -25 73 -2 4 -4 9 -5 12 -1 3 -3 8 -5 13 -3
10 -15 41 -36 89 -11 23 -19 44 -19 47 0 11 -104 224 -122 249 -11 15 -16 27
-11 27 4 0 3 4 -2 8 -6 4 -17 20 -25 36 -29 56 -35 66 -42 66 -5 0 -8 5 -8 11
0 12 -80 133 -92 137 -4 2 -8 8 -8 13 0 8 -99 138 -120 159 -3 3 -18 21 -34
40 -43 53 -180 193 -253 257 -37 32 -71 63 -77 68 -6 6 -29 24 -51 40 -22 17
-49 38 -60 47 -40 33 -150 109 -167 115 -10 3 -18 9 -18 14 0 5 -4 9 -9 9 -5
0 -40 19 -77 42 -95 57 -273 148 -369 187 -44 19 -84 36 -90 39 -5 4 -14 7
-20 9 -10 2 -188 66 -215 76 -8 4 -41 13 -72 21 -31 8 -66 20 -77 26 -12 6
-21 9 -21 6 0 -3 -30 4 -68 14 -37 10 -80 21 -95 24 -15 2 -35 7 -45 10 -17 5
-36 9 -97 21 -16 3 -43 8 -60 12 -16 3 -43 7 -60 9 -32 4 -70 11 -70 14 0 1
-13 3 -30 4 -16 2 -70 8 -120 15 -131 17 -151 19 -245 26 -47 4 -101 9 -120
12 -39 5 -717 13 -722 8z m682 -4668 c8 -3 33 -8 55 -11 125 -17 299 -89 411
-171 61 -46 194 -174 194 -188 0 -4 8 -16 18 -27 19 -21 91 -152 103 -190 4
-14 15 -45 24 -70 9 -25 19 -52 21 -60 13 -51 34 -153 38 -186 2 -22 5 -39 6
-39 12 0 19 -230 20 -596 0 -173 0 -316 0 -319 0 -3 -3 -75 -5 -160 -3 -85 -7
-171 -9 -190 -8 -77 -19 -156 -23 -175 -2 -11 -8 -40 -13 -65 -4 -25 -11 -58
-15 -75 -11 -52 -52 -189 -68 -227 -8 -20 -13 -39 -9 -42 3 -3 0 -6 -6 -6 -7
0 -12 -7 -12 -16 0 -35 -112 -236 -184 -329 -46 -59 -162 -175 -237 -236 -96
-78 -109 -88 -159 -117 -25 -14 -47 -29 -50 -33 -15 -20 -271 -130 -333 -143
-21 -5 -31 -7 -89 -22 -13 -3 -41 -7 -63 -10 -22 -3 -51 -8 -65 -11 -37 -9
-340 -8 -380 1 -19 5 -46 9 -60 10 -27 3 -75 14 -100 23 -8 4 -26 8 -39 10
-13 2 -38 12 -55 21 -17 9 -33 17 -36 17 -33 9 -90 38 -148 77 -24 15 -47 28
-53 28 -5 0 -9 4 -9 8 0 4 -13 15 -29 25 -50 29 -187 174 -252 267 -97 138
-183 313 -226 465 -32 113 -43 155 -47 187 -6 43 -15 98 -21 123 -8 38 -19
180 -19 257 -1 43 -5 78 -9 78 -4 0 -3 8 2 18 7 13 6 23 -1 30 -7 7 -8 12 -3
12 6 0 11 50 12 113 1 61 4 130 7 152 3 22 7 65 10 95 6 56 11 92 23 145 4 17
8 39 9 50 4 29 14 77 21 100 4 11 8 25 9 30 1 6 7 30 15 55 7 25 13 50 15 55
8 38 84 226 123 305 55 110 140 251 158 263 7 4 13 12 13 17 0 4 9 19 19 32
95 114 147 172 202 225 66 64 215 183 230 183 4 0 14 6 21 14 43 42 322 164
418 182 14 3 33 7 42 10 24 7 57 13 158 28 83 13 400 15 430 3z"/>
<path d="M11050 4579 c-19 -4 -56 -10 -83 -13 -26 -3 -66 -10 -90 -17 -41 -11
-50 -13 -114 -25 -18 -3 -33 -11 -33 -17 0 -6 -3 -8 -6 -4 -7 7 -88 -21 -166
-57 -31 -14 -62 -26 -67 -26 -6 0 -11 -4 -11 -10 0 -5 -4 -10 -9 -10 -15 0
-135 -73 -144 -87 -4 -7 -14 -13 -22 -13 -7 0 -15 -3 -17 -7 -1 -5 -25 -26
-52 -47 -66 -53 -152 -138 -213 -211 -58 -68 -153 -208 -153 -224 0 -6 -4 -11
-10 -11 -5 0 -10 -6 -10 -12 0 -7 -12 -35 -25 -63 -23 -45 -71 -166 -81 -205
-3 -12 -40 -169 -43 -185 -1 -3 -1 -6 -2 -7 -4 -12 -11 -129 -13 -195 0 -46
-4 -83 -8 -83 -4 0 -3 -12 1 -27 4 -16 7 -54 6 -85 0 -32 2 -58 5 -58 3 0 6
-21 8 -47 5 -88 69 -319 111 -400 5 -10 17 -36 27 -58 11 -22 22 -42 27 -43 4
-2 5 -8 1 -13 -3 -5 -1 -9 3 -9 5 0 17 -17 28 -37 10 -21 41 -66 67 -100 26
-35 48 -65 48 -68 0 -2 42 -46 93 -98 99 -100 188 -177 205 -177 6 0 12 -4 14
-9 4 -11 118 -84 157 -101 17 -7 31 -16 31 -21 0 -5 5 -9 11 -9 6 0 37 -11 68
-24 76 -33 95 -39 104 -38 4 1 7 -2 7 -6 0 -5 6 -9 13 -9 6 0 57 -12 112 -26
55 -15 119 -29 142 -32 23 -3 57 -8 75 -11 57 -10 370 -12 428 -4 30 5 73 11
95 14 128 17 296 67 406 120 29 15 59 26 66 26 7 0 13 4 13 8 0 10 50 37 63
34 4 -1 7 2 7 6 0 5 11 14 25 20 14 7 31 17 38 22 7 6 44 34 82 62 75 56 236
213 275 269 13 19 27 36 31 39 16 12 135 211 144 240 1 3 11 25 23 50 25 52
57 146 72 210 6 25 13 54 15 65 3 11 7 36 10 55 3 19 7 46 11 60 3 14 7 99 9
190 3 174 -7 272 -44 432 -6 25 -15 57 -20 70 -5 13 -17 49 -27 81 -10 31 -22
57 -28 57 -5 0 -7 3 -3 6 11 12 -91 198 -150 271 -18 23 -33 44 -33 47 0 8
-42 55 -120 135 -81 82 -131 126 -195 170 -28 19 -52 37 -55 40 -10 12 -88 54
-170 92 -47 22 -94 45 -105 50 -11 5 -30 11 -42 14 -12 2 -31 9 -43 15 -11 6
-25 8 -30 5 -6 -3 -10 -1 -10 5 0 7 -7 10 -15 6 -8 -3 -15 -2 -15 2 0 4 -8 8
-17 9 -27 2 -86 13 -103 20 -8 3 -37 7 -65 10 -52 4 -90 10 -90 14 0 6 -396 4
-425 -2z"/>
</g>
</svg>
