<?xml version="1.0" standalone="no"?>
<!DOCTYPE svg PUBLIC "-//W3C//DTD SVG 20010904//EN"
 "http://www.w3.org/TR/2001/REC-SVG-20010904/DTD/svg10.dtd">
<svg version="1.0" xmlns="http://www.w3.org/2000/svg"
 width="665.000000pt" height="665.000000pt" viewBox="0 0 665.000000 665.000000"
 preserveAspectRatio="xMidYMid meet">
<metadata>
Created by potrace 1.11, written by Peter Selinger 2001-2013
</metadata>
<g transform="translate(0.000000,665.000000) scale(0.100000,-0.100000)"
fill="#000000" stroke="none">
<path d="M3250 6182 c-30 -53 -59 -104 -65 -114 -5 -9 -17 -29 -26 -45 -8 -15
-65 -116 -126 -223 -60 -107 -121 -215 -135 -240 -14 -25 -53 -94 -88 -155
-34 -60 -76 -134 -92 -164 -16 -30 -63 -112 -104 -183 -41 -71 -74 -133 -74
-138 0 -6 -4 -10 -9 -10 -5 0 -12 -9 -16 -20 -5 -16 -62 -119 -191 -345 -13
-22 -29 -51 -36 -65 -7 -14 -15 -27 -18 -30 -3 -3 -14 -23 -26 -45 -11 -22
-31 -58 -44 -80 -12 -22 -51 -89 -85 -150 -34 -60 -72 -128 -85 -150 -12 -22
-34 -60 -48 -85 -24 -43 -125 -221 -172 -305 -80 -140 -161 -287 -166 -299 -3
-8 22 -33 68 -67 40 -30 82 -61 93 -71 184 -152 285 -237 306 -258 14 -14 48
-45 75 -69 155 -138 281 -259 573 -551 382 -381 433 -434 406 -423 -11 5 -83
39 -160 77 -186 91 -425 205 -445 211 -3 1 -36 16 -74 34 -39 17 -84 38 -100
45 -17 8 -57 25 -89 40 -31 14 -85 37 -120 52 -34 14 -75 31 -92 39 -16 7 -55
23 -85 35 -30 12 -68 28 -85 35 -54 24 -238 93 -335 125 -52 18 -104 36 -115
40 -11 4 -54 17 -95 29 -85 23 -83 24 -127 -56 -15 -28 -58 -106 -95 -173 -38
-67 -68 -126 -68 -131 0 -5 -3 -9 -7 -9 -5 0 -13 -10 -19 -23 -22 -46 -108
-202 -113 -207 -4 -3 -12 -16 -18 -30 -7 -14 -27 -52 -46 -85 -54 -96 -81
-144 -134 -240 -28 -49 -103 -184 -167 -298 -64 -115 -116 -212 -116 -218 0
-5 -4 -9 -9 -9 -5 0 -13 -10 -17 -22 -3 -13 -15 -35 -26 -50 -11 -16 -16 -28
-11 -28 4 0 4 -4 -2 -8 -10 -7 -48 -72 -70 -119 -5 -13 -13 -23 -17 -23 -5 0
-8 -5 -8 -10 0 -6 -20 -45 -44 -88 -51 -90 -58 -103 -161 -287 -42 -77 -82
-145 -87 -152 -5 -6 -5 -13 -1 -16 18 -9 962 -2 972 8 13 14 121 206 121 215
0 5 3 10 8 12 4 2 22 32 41 68 19 36 39 68 44 71 5 3 9 10 9 15 1 17 21 54 30
54 4 0 8 7 8 16 0 9 9 27 20 41 11 14 20 32 20 39 0 8 4 14 9 14 5 0 12 11 15
25 4 14 11 25 17 25 6 0 8 4 5 9 -3 5 1 14 9 21 8 7 15 16 15 20 0 5 23 48 51
97 45 78 89 156 123 218 6 11 13 22 16 25 3 3 13 21 22 40 10 19 30 58 46 85
66 115 217 382 229 407 8 15 19 30 24 33 5 4 7 11 4 16 -4 5 -2 9 3 9 5 0 12
10 15 21 5 18 11 20 34 15 54 -13 359 -137 398 -162 11 -7 24 -13 28 -13 7 0
414 -201 447 -221 8 -5 85 -47 170 -93 85 -47 211 -117 279 -156 68 -39 127
-71 132 -71 5 0 9 -4 9 -10 0 -5 5 -10 10 -10 6 0 55 -27 110 -60 54 -33 113
-68 132 -78 52 -30 427 -260 483 -297 28 -18 128 -81 223 -141 95 -60 183
-116 196 -124 13 -8 42 -26 65 -39 22 -14 41 -28 41 -33 0 -4 5 -8 10 -8 6 0
38 -18 71 -40 100 -66 104 -67 62 -8 -21 29 -41 55 -45 56 -5 2 -8 8 -8 13 0
14 -431 619 -549 770 -20 25 -47 60 -61 79 -56 74 -212 276 -228 295 -9 11
-33 40 -52 65 -19 25 -37 47 -40 50 -3 3 -17 21 -31 40 -15 19 -35 45 -45 56
-11 12 -30 36 -44 54 -14 18 -30 38 -35 44 -6 6 -30 36 -55 66 -25 30 -49 60
-55 66 -5 6 -30 35 -55 64 -52 62 -170 200 -185 216 -5 6 -39 44 -75 84 -36
40 -94 105 -130 144 -76 82 -432 439 -508 510 -47 43 -51 50 -39 65 8 9 20 31
28 49 8 17 17 32 21 32 5 0 8 4 8 9 0 5 57 108 126 228 70 120 135 234 146
253 10 19 23 42 29 50 20 33 143 247 157 275 8 17 23 41 32 55 9 14 28 45 42
70 30 54 71 126 153 268 17 29 32 52 35 52 3 0 21 -31 40 -68 19 -37 38 -69
41 -72 8 -6 43 -73 60 -112 6 -16 15 -28 20 -28 5 0 9 -4 9 -10 0 -5 48 -94
107 -197 59 -104 118 -208 131 -233 14 -25 35 -61 46 -81 102 -178 136 -241
136 -249 0 -6 5 -10 10 -10 6 0 10 -4 10 -9 0 -5 32 -64 70 -132 39 -67 70
-124 70 -125 0 -2 18 -33 40 -69 22 -36 40 -67 40 -69 0 -2 34 -64 76 -137 42
-74 86 -152 99 -174 12 -22 42 -74 65 -115 24 -41 54 -94 67 -117 36 -66 66
-119 128 -228 31 -55 71 -125 87 -155 17 -30 57 -100 88 -155 31 -55 68 -120
82 -145 14 -25 36 -63 48 -85 13 -22 32 -56 42 -75 10 -19 27 -48 37 -65 9
-16 32 -57 50 -90 18 -33 36 -64 41 -70 4 -5 24 -41 44 -78 46 -85 51 -94 179
-319 59 -102 107 -191 107 -197 0 -6 4 -11 9 -11 5 0 11 -8 15 -17 3 -10 15
-34 27 -53 12 -19 34 -57 48 -85 15 -27 60 -107 100 -178 l72 -127 495 0 c323
0 494 3 494 10 0 6 -4 10 -10 10 -5 0 -10 5 -10 10 0 6 -11 27 -24 48 -13 20
-37 62 -53 92 -16 30 -42 78 -58 105 -16 28 -36 64 -45 80 -10 17 -40 70 -69
119 -28 49 -51 90 -51 91 0 2 -40 74 -90 160 -49 86 -90 159 -90 162 0 3 -8
17 -18 31 -11 15 -32 52 -49 82 -16 30 -50 91 -75 135 -25 44 -56 98 -68 120
-12 22 -42 74 -65 115 -23 41 -51 91 -62 110 -11 19 -67 118 -125 220 -58 102
-120 212 -138 245 -18 33 -66 117 -107 187 -40 70 -73 132 -73 138 0 5 -4 10
-10 10 -5 0 -10 4 -10 9 0 6 -15 36 -34 68 -19 32 -64 112 -101 178 -37 66
-79 140 -93 165 -33 59 -143 254 -172 305 -13 22 -52 92 -88 155 -35 63 -68
120 -72 125 -4 6 -22 36 -39 68 -74 136 -95 174 -117 209 -13 21 -24 40 -24
42 0 2 -22 42 -50 89 -27 47 -50 90 -50 96 0 6 -4 11 -9 11 -5 0 -11 6 -13 13
-5 21 -221 402 -230 405 -4 2 -8 9 -8 15 0 7 -16 38 -35 71 -20 32 -51 86 -69
120 -19 33 -67 120 -108 192 -41 71 -77 137 -81 145 -4 8 -11 21 -17 29 -25
38 -110 193 -110 201 0 5 -4 9 -10 9 -5 0 -10 5 -10 11 0 6 -15 37 -34 68 -18
31 -45 76 -58 101 -14 25 -63 113 -110 195 -47 83 -98 173 -113 200 -15 28
-31 55 -35 60 -4 6 -26 46 -50 90 -24 44 -51 92 -61 107 -11 14 -19 30 -19 35
0 4 -6 15 -13 25 -11 14 -20 4 -67 -80z"/>
</g>
</svg>
